<svg xmlns="http://www.w3.org/2000/svg" viewBox="0 0 380.75 84.05"><defs><style>.cls-1{fill:#3a3a39;}.cls-1,.cls-2{fill-rule:evenodd;}.cls-2,.cls-3{fill:#0b71b8;}</style></defs><title>FP-Tech-Logo</title><g id="Layer_2" data-name="Layer 2"><g id="Layer_1-2" data-name="Layer 1"><path class="cls-1" d="M101,52.07V32.28h13.35V34.6H103.6v6.16h9.29v2.32H103.6v9Zm14.06,0V32.28h7.47a18.2,18.2,0,0,1,3,.19,6,6,0,0,1,2.45.92,4.88,4.88,0,0,1,1.59,1.91,6.41,6.41,0,0,1-1,7Q126.93,44,122.73,44h-5.08v8.07Zm2.62-10.39h5.11a5.43,5.43,0,0,0,3.61-.94,3.37,3.37,0,0,0,1.06-2.66,3.57,3.57,0,0,0-.63-2.12,2.94,2.94,0,0,0-1.65-1.17,11.25,11.25,0,0,0-2.44-.18h-5.06Z"/><path class="cls-2" d="M143.48,52.07V34.6H137V32.28h15.67V34.6h-6.52V52.07Zm89.83-6.36,2.46-.22a5.49,5.49,0,0,0,.82,2.45,4.51,4.51,0,0,0,2,1.55,7.54,7.54,0,0,0,3,.59,7.22,7.22,0,0,0,2.65-.45A3.67,3.67,0,0,0,246,48.4a2.86,2.86,0,0,0,.56-1.7,2.58,2.58,0,0,0-.54-1.62,4,4,0,0,0-1.78-1.16q-.79-.3-3.52-1a18,18,0,0,1-3.82-1.23,5.36,5.36,0,0,1-2.1-1.85,4.5,4.5,0,0,1-.69-2.46,5,5,0,0,1,.85-2.8,5.24,5.24,0,0,1,2.48-2,9.38,9.38,0,0,1,3.63-.68,9.87,9.87,0,0,1,3.88.71,5.56,5.56,0,0,1,2.58,2.09,6,6,0,0,1,1,3.12l-2.51.19a4,4,0,0,0-1.37-2.83,5.33,5.33,0,0,0-3.45-1,5.55,5.55,0,0,0-3.46.87,2.62,2.62,0,0,0-1.09,2.1,2.26,2.26,0,0,0,.77,1.75,10.48,10.48,0,0,0,3.95,1.41,26.34,26.34,0,0,1,4.38,1.26,6,6,0,0,1,2.55,2,4.89,4.89,0,0,1,.82,2.8,5.35,5.35,0,0,1-.9,3,5.93,5.93,0,0,1-2.59,2.17,9,9,0,0,1-3.81.78,11.37,11.37,0,0,1-4.49-.78,6.26,6.26,0,0,1-2.84-2.35,6.63,6.63,0,0,1-1.09-3.55Zm-79.45,6.36v-20H174v3H157.18v5.11H168.9v3H157.18v5.86h17.63v3ZM195,37.7l3-1.08a12.74,12.74,0,0,0-4.9-3.88,16,16,0,0,0-6.62-1.31,16.16,16.16,0,0,0-4.85.7,12.45,12.45,0,0,0-3.91,2A9.81,9.81,0,0,0,177.66,50a12.85,12.85,0,0,0,3.92,1.95,16.38,16.38,0,0,0,4.89.7,17.23,17.23,0,0,0,6.47-1.11,12.82,12.82,0,0,0,4.92-3.65L195,46.29a9.57,9.57,0,0,1-3.62,2.51,13.18,13.18,0,0,1-4.73.77,13.33,13.33,0,0,1-4-.55,9.11,9.11,0,0,1-3-1.55,6.72,6.72,0,0,1-1.91-2.39A7.1,7.1,0,0,1,177.1,42a6.75,6.75,0,0,1,.68-3,7.11,7.11,0,0,1,1.91-2.39,9,9,0,0,1,3-1.58,12.25,12.25,0,0,1,3.83-.57,14,14,0,0,1,4.85.77A9.46,9.46,0,0,1,195,37.7Zm25,14.37V43.2H204v8.87h-3.32v-20H204v8.12h16V32.06h3.32v20ZM271.47,37.7a9.45,9.45,0,0,0-3.66-2.46,13.94,13.94,0,0,0-4.85-.77,12.24,12.24,0,0,0-3.83.57,9,9,0,0,0-3,1.58A7.1,7.1,0,0,0,254.27,39a6.75,6.75,0,0,0-.68,3,7.1,7.1,0,0,0,.66,3.08,6.74,6.74,0,0,0,1.91,2.39,9.13,9.13,0,0,0,3,1.55,13.34,13.34,0,0,0,4,.55,13.18,13.18,0,0,0,4.72-.77,9.55,9.55,0,0,0,3.62-2.51l2.85,1.58a12.83,12.83,0,0,1-4.92,3.65A17.23,17.23,0,0,1,263,52.62a16.37,16.37,0,0,1-4.89-.7A12.84,12.84,0,0,1,254.15,50a9.81,9.81,0,0,1,.05-15.86,12.46,12.46,0,0,1,3.91-2,16.17,16.17,0,0,1,4.85-.7,16,16,0,0,1,6.62,1.31,12.73,12.73,0,0,1,4.91,3.88l-3,1.08Zm5.67,14.37v-20h3.32v20Zm7.1,0v-20h20.17v3H287.56v5.11h11.72v3H287.56v5.86h17.63v3Zm41.68,0L310.61,35.65V52.07h-3.32v-20h4.12l15.28,16.42V32.06H330v20ZM354.13,37.7a9.45,9.45,0,0,0-3.66-2.46,13.93,13.93,0,0,0-4.85-.77,12.24,12.24,0,0,0-3.83.57,9,9,0,0,0-3,1.58A7.12,7.12,0,0,0,336.93,39a6.76,6.76,0,0,0-.68,3,7.07,7.07,0,0,0,.66,3.08,6.72,6.72,0,0,0,1.91,2.39,9.13,9.13,0,0,0,3,1.55,13.34,13.34,0,0,0,4,.55,13.16,13.16,0,0,0,4.72-.77,9.56,9.56,0,0,0,3.62-2.51L357,47.87a12.84,12.84,0,0,1-4.92,3.65,17.23,17.23,0,0,1-6.47,1.11,16.38,16.38,0,0,1-4.89-.7A12.84,12.84,0,0,1,336.81,50a9.81,9.81,0,0,1,.06-15.86,12.46,12.46,0,0,1,3.91-2,16.16,16.16,0,0,1,4.85-.7,16,16,0,0,1,6.62,1.31,12.74,12.74,0,0,1,4.9,3.88l-3,1.08Zm5.67,14.37v-20H380v3H363.12v5.11h11.72v3H363.12v5.86h17.63v3Z"/><path class="cls-2" d="M57.43,9.84a21.13,21.13,0,0,1,9.76,2.6l.06,0A21.43,21.43,0,0,1,75.9,41.31a21.44,21.44,0,0,1-18,32.21,21.44,21.44,0,0,1-36.49.69A21.44,21.44,0,0,1,2.9,42.73a21.43,21.43,0,0,1,7.53-29.16l.05,0a21.21,21.21,0,0,1,10.47-3,21.45,21.45,0,0,1,36.48-.69ZM18.56,26.46A21.46,21.46,0,0,1,20,12.28,19.73,19.73,0,0,0,3.91,41a21.48,21.48,0,0,1,11.37-8.66,26.3,26.3,0,0,1,3.28-5.9ZM20,24.74a25.87,25.87,0,0,1,12.74-7.89l1.11-.27a19.8,19.8,0,0,0-11.85-4.34,19.67,19.67,0,0,0-2,12.5Zm21.88-8.66A21.51,21.51,0,0,1,55.4,9.89a19.73,19.73,0,0,0-32.46.69A21.48,21.48,0,0,1,36,16.2a25.88,25.88,0,0,1,5.86-.12Zm2.19.3a26.08,26.08,0,0,1,14.84,8.37,19.78,19.78,0,0,0-2.38-13.2A19.81,19.81,0,0,0,44,16.38ZM58.45,11.6a21.49,21.49,0,0,1,1.8,14.87,25.91,25.91,0,0,1,2.88,5,21.48,21.48,0,0,1,11.69,8.21,19.73,19.73,0,0,0-8.43-25.7h0a19.69,19.69,0,0,0-7.91-2.33Zm5.71,38a19.65,19.65,0,0,0,9.76-8.29,19.78,19.78,0,0,0-10-7.87q.29.85.52,1.71a26,26,0,0,1-.29,14.45Zm-.75,2.08a26.29,26.29,0,0,1-1.48,3l-.07.12A26.37,26.37,0,0,1,60.2,57.4a21.41,21.41,0,0,1-.09,10.76,21.69,21.69,0,0,1-1.32,3.6A19.74,19.74,0,0,0,74.89,43,21.37,21.37,0,0,1,63.4,51.72ZM58.82,59.1A25.88,25.88,0,0,1,46.11,67q-.67.18-1.34.32a19.63,19.63,0,0,0,12.08,4.53,19.79,19.79,0,0,0,2-12.71ZM23.4,74.15a19.74,19.74,0,0,0,32.47-.68A21.37,21.37,0,0,1,42.6,67.64a25.69,25.69,0,0,1-5.42.11,21.36,21.36,0,0,1-13.79,6.4ZM35,67.47a26.07,26.07,0,0,1-15-8.36,19.6,19.6,0,0,0,2.33,13.37v0h0a19.43,19.43,0,0,0,12.65-5ZM4,44.4a19.73,19.73,0,0,0,16.37,28,21.42,21.42,0,0,1-1.75-15,26,26,0,0,1-2.81-4.76A21.36,21.36,0,0,1,4,44.4Zm11,6.2c-.23-.65-.44-1.31-.62-2a26,26,0,0,1,.21-14.18,19.79,19.79,0,0,0-9.67,8.26A19.65,19.65,0,0,0,15,50.6ZM33.13,18.51a24.22,24.22,0,0,0-6,44.31l.11.06a24.22,24.22,0,1,0,5.84-44.37Z"/><polygon class="cls-2" points="54.01 41.91 30.91 27.75 31.11 27.42 54.21 41.59 54.01 41.91"/><rect class="cls-3" x="39.97" y="19.9" width="0.39" height="14.51" transform="translate(12.85 67.21) rotate(-89.77)"/><polygon class="cls-2" points="26.35 42.02 53.98 42.08 53.98 42.47 26.35 42.41 26.35 42.02"/><rect class="cls-3" x="22.12" y="33.87" width="25.98" height="0.39" transform="translate(-12.05 21.09) rotate(-28.75)"/><rect class="cls-3" x="26.66" y="42.65" width="0.39" height="13.84" transform="translate(-17.98 15.39) rotate(-24.23)"/><rect class="cls-3" x="23.05" y="41.63" width="32.58" height="0.39" transform="translate(-16.49 55.23) rotate(-60.26)"/><polygon class="cls-2" points="33 57.28 45.8 57.32 45.8 57.7 33 57.67 33 57.28"/><rect class="cls-3" x="38.94" y="26.18" width="0.39" height="32.41" transform="translate(-15.54 23.98) rotate(-28.68)"/><polygon class="cls-2" points="49.05 28.16 55.11 40.22 54.76 40.39 48.7 28.33 49.05 28.16"/><rect class="cls-3" x="47.7" y="27.94" width="0.39" height="28.41"/><rect class="cls-3" x="16.26" y="41.96" width="28.68" height="0.39" transform="translate(-12.16 71.9) rotate(-88.84)"/><rect class="cls-3" x="19.9" y="34.26" width="13.74" height="0.39" transform="translate(-15.83 43.85) rotate(-64.59)"/><polygon class="cls-2" points="54.44 44.01 47.92 56.41 47.58 56.23 54.1 43.83 54.44 44.01"/><rect class="cls-3" x="29.29" y="48.64" width="27.44" height="0.39" transform="translate(-18.43 27.38) rotate(-29.38)"/><rect class="cls-3" x="29.29" y="48.64" width="27.44" height="0.39" transform="translate(-18.43 27.38) rotate(-29.38)"/><circle class="cls-3" cx="24.32" cy="42.02" r="2.28" transform="translate(-14.9 13.4) rotate(-23.82)"/><circle class="cls-3" cx="54.47" cy="42.02" r="2.28" transform="translate(-12.33 25.56) rotate(-23.81)"/><circle class="cls-3" cx="39.4" cy="42.02" r="2.28" transform="translate(-13.61 19.49) rotate(-23.82)"/><circle class="cls-3" cx="31.03" cy="26.95" r="2.28" transform="translate(-8.24 14.81) rotate(-23.8)"/><circle class="cls-3" cx="47.77" cy="26.95" r="2.28" transform="translate(-6.81 21.56) rotate(-23.79)"/><circle class="cls-3" cx="31.03" cy="57.1" r="2.28" transform="translate(-20.41 17.39) rotate(-23.82)"/><circle class="cls-3" cx="47.77" cy="57.1" r="2.28" transform="translate(-18.98 24.14) rotate(-23.81)"/></g></g></svg>